<svg width="304" height="49" viewBox="0 0 304 49" fill="none" xmlns="http://www.w3.org/2000/svg">
<path d="M27.0909 16C26.9697 14.4848 26.4015 13.303 25.3864 12.4545C24.3864 11.6061 22.8636 11.1818 20.8182 11.1818C19.5152 11.1818 18.447 11.3409 17.6136 11.6591C16.7955 11.9621 16.1894 12.3788 15.7955 12.9091C15.4015 13.4394 15.197 14.0455 15.1818 14.7273C15.1515 15.2879 15.25 15.7955 15.4773 16.25C15.7197 16.6894 16.0985 17.0909 16.6136 17.4545C17.1288 17.803 17.7879 18.1212 18.5909 18.4091C19.3939 18.697 20.3485 18.9545 21.4545 19.1818L25.2727 20C27.8485 20.5455 30.053 21.2652 31.8864 22.1591C33.7197 23.053 35.2197 24.1061 36.3864 25.3182C37.553 26.5152 38.4091 27.8636 38.9545 29.3636C39.5152 30.8636 39.803 32.5 39.8182 34.2727C39.803 37.3333 39.0379 39.9242 37.5227 42.0455C36.0076 44.1667 33.8409 45.7803 31.0227 46.8864C28.2197 47.9924 24.8485 48.5455 20.9091 48.5455C16.8636 48.5455 13.3333 47.947 10.3182 46.75C7.31818 45.553 4.98485 43.7121 3.31818 41.2273C1.66667 38.7273 0.833333 35.5303 0.818182 31.6364H12.8182C12.8939 33.0606 13.25 34.2576 13.8864 35.2273C14.5227 36.197 15.4167 36.9318 16.5682 37.4318C17.7348 37.9318 19.1212 38.1818 20.7273 38.1818C22.0758 38.1818 23.2045 38.0152 24.1136 37.6818C25.0227 37.3485 25.7121 36.8864 26.1818 36.2955C26.6515 35.7045 26.8939 35.0303 26.9091 34.2727C26.8939 33.5606 26.6591 32.9394 26.2045 32.4091C25.7652 31.8636 25.0379 31.3788 24.0227 30.9545C23.0076 30.5152 21.6364 30.1061 19.9091 29.7273L15.2727 28.7273C11.1515 27.8333 7.90152 26.3409 5.52273 24.25C3.15909 22.1439 1.98485 19.2727 2 15.6364C1.98485 12.6818 2.77273 10.0985 4.36364 7.88636C5.9697 5.65909 8.18939 3.92424 11.0227 2.68182C13.8712 1.43939 17.1364 0.81818 20.8182 0.81818C24.5758 0.81818 27.8258 1.44697 30.5682 2.70454C33.3106 3.96212 35.4242 5.73485 36.9091 8.02273C38.4091 10.2955 39.1667 12.9545 39.1818 16H27.0909ZM44.625 48V1.45454H57.2614V19.6364H73.9886V1.45454H86.625V48H73.9886V29.8182H57.2614V48H44.625ZM137.716 24.7273C137.716 29.9091 136.708 34.2803 134.693 37.8409C132.678 41.3864 129.958 44.0758 126.534 45.9091C123.11 47.7273 119.292 48.6364 115.08 48.6364C110.837 48.6364 107.004 47.7197 103.58 45.8864C100.17 44.0379 97.4583 41.3409 95.4432 37.7955C93.4432 34.2348 92.4432 29.8788 92.4432 24.7273C92.4432 19.5455 93.4432 15.1818 95.4432 11.6364C97.4583 8.07576 100.17 5.38636 103.58 3.56818C107.004 1.73485 110.837 0.81818 115.08 0.81818C119.292 0.81818 123.11 1.73485 126.534 3.56818C129.958 5.38636 132.678 8.07576 134.693 11.6364C136.708 15.1818 137.716 19.5455 137.716 24.7273ZM124.716 24.7273C124.716 21.9394 124.345 19.5909 123.602 17.6818C122.875 15.7576 121.792 14.303 120.352 13.3182C118.928 12.3182 117.17 11.8182 115.08 11.8182C112.989 11.8182 111.223 12.3182 109.784 13.3182C108.36 14.303 107.277 15.7576 106.534 17.6818C105.807 19.5909 105.443 21.9394 105.443 24.7273C105.443 27.5152 105.807 29.8712 106.534 31.7955C107.277 33.7045 108.36 35.1591 109.784 36.1591C111.223 37.1439 112.989 37.6364 115.08 37.6364C117.17 37.6364 118.928 37.1439 120.352 36.1591C121.792 35.1591 122.875 33.7045 123.602 31.7955C124.345 29.8712 124.716 27.5152 124.716 24.7273ZM143.562 48V1.45454H163.653C167.108 1.45454 170.131 2.08333 172.722 3.34091C175.313 4.59848 177.328 6.40909 178.767 8.77273C180.206 11.1364 180.926 13.9697 180.926 17.2727C180.926 20.6061 180.184 23.4167 178.699 25.7045C177.229 27.9924 175.161 29.7197 172.494 30.8864C169.843 32.053 166.744 32.6364 163.199 32.6364H151.199V22.8182H160.653C162.138 22.8182 163.403 22.6364 164.449 22.2727C165.509 21.8939 166.32 21.2955 166.881 20.4773C167.456 19.6591 167.744 18.5909 167.744 17.2727C167.744 15.9394 167.456 14.8561 166.881 14.0227C166.32 13.1742 165.509 12.553 164.449 12.1591C163.403 11.75 162.138 11.5455 160.653 11.5455H156.199V48H143.562ZM170.835 26.6364L182.472 48H168.744L157.381 26.6364H170.835ZM185.04 11.6364V1.45454H225.494V11.6364H211.494V48H199.04V11.6364H185.04Z" fill="white"/>
<path d="M230.25 48V1.45454H242.886V37.8182H261.705V48H230.25ZM256.466 1.45454H270.557L279.648 20.3636H280.011L289.102 1.45454H303.193L286.102 33.3636V48H273.557V33.3636L256.466 1.45454Z" fill="#AFE3C0"/>
</svg>
